<svg width="1070" height="774" viewBox="0 0 1070 774" fill="none" xmlns="http://www.w3.org/2000/svg">
<path opacity="0.996" fill-rule="evenodd" clip-rule="evenodd" d="M468.026 0C528.8 0 589.575 0 650.35 0C650.211 43.8478 650.35 87.694 650.767 131.54C671.045 121.092 692.551 114.571 715.288 111.976C757.889 107.343 800.348 108.453 842.665 115.306C952.102 142.326 1023.57 209.623 1057.04 317.195C1063.54 340.086 1067.7 363.397 1069.53 387.128C1069.95 506.734 1070.09 626.342 1069.95 745.949C1043.31 746.091 1016.66 745.949 990.024 745.533C939.938 742.628 908.444 716.959 895.531 668.524C891.21 651.572 888.43 634.366 887.206 616.907C886.215 599.437 885.524 581.954 885.125 564.457C886.631 513.678 887.605 462.893 888.038 412.104C887.664 379.23 879.613 348.427 863.895 319.693C838.07 281.647 802.138 265.412 756.082 270.989C734.103 273.321 713.565 279.982 694.475 290.97C674.82 304.259 661.916 322.436 655.762 345.501C651.205 362.13 648.43 379.058 647.436 396.286C646.134 419.865 645.025 443.453 644.106 467.051C641.619 577.644 592.36 659.648 496.332 713.064C477.091 723.92 456.555 731.13 434.724 734.71C383.136 746.49 331.242 748.156 279.041 739.705C242.391 733.228 208.535 719.908 177.472 699.744C173.372 696.653 169.348 693.461 165.4 690.17C133.804 745.192 85.933 772.94 21.788 773.423C14.5692 772.832 7.35443 772.282 0.142196 771.758C-0.249095 668.791 0.167172 565.834 1.39099 462.888C8.45087 388.408 39.6709 326.384 95.0509 276.817C133.612 243.922 176.904 218.668 224.926 201.057C272.631 183.511 321.75 171.856 372.284 166.09C396.335 162.241 418.258 153.362 438.054 139.449C452.317 128 461.891 113.431 466.777 95.7413C468 63.8611 468.416 31.9468 468.026 0ZM474.686 315.53C475.224 316.174 475.502 317.007 475.518 318.027C468.89 360.284 466.947 402.743 469.691 445.405C473.666 504.219 449.523 546.817 397.26 573.199C344.708 592.562 298.78 582.432 259.476 542.811C228.155 504.462 221.217 462.002 238.663 415.434C259.417 372.222 293.69 347.662 341.481 341.755C377.374 337.795 412.896 331.689 448.045 323.439C457.175 321.299 466.056 318.664 474.686 315.53Z" fill="#588DF7"/>
<path opacity="0.995" fill-rule="evenodd" clip-rule="evenodd" d="M1.82632 39.9603C29.0485 39.5873 56.2448 40.0036 83.4145 41.2091C112.807 45.1512 137.644 57.7774 157.926 79.0894C174.332 101.123 181.686 125.96 179.988 153.601C179.983 160.879 179.705 168.095 179.156 175.247C117.193 193.42 65.9921 227.415 25.5535 277.232C16.7944 289.057 9.02357 301.545 2.24259 314.696C1.82632 223.118 1.68729 131.54 1.82632 39.9603Z" fill="#0135AE"/>
</svg>
